M48
;Layer_Color=9474304
;FILE_FORMAT=2:5
INCH,LZ
;TYPE=PLATED
T1F00S00C0.01181
T2F00S00C0.03150
T3F00S00C0.03583
T4F00S00C0.04331
T5F00S00C0.04488
T6F00S00C0.04528
T7F00S00C0.06162
%
T01
X0023996Y0099
X0023Y0110182
X00274Y01226
X00493Y0122
X007Y01037
X00828Y00947
X01Y01
X0105406Y0122
X01065Y01725
X0108418Y01815
X0143Y01755
X01637Y01556
X0172694Y0153
X01661Y01435
X0170256Y01192
X0170249Y0114159
X01675Y0103
X0154325Y0086775
X00686Y01706
X00498Y01728
X00396Y01815
X0195749Y0163659
X0216749Y0161159
X0193749Y0113159
X0178834Y0092769
X00345Y01875
T02
X0193752Y01895
X02095
X0225248
X00325Y0198
X001498
T03
X00095Y01335
Y01435
T04
X00125Y00845
X00225
X00325
X00425
X0062667
X0072667
X0082667
X0092667
X0112833
X0122833
X0132833
X0142833
X0163
X0173
X0183
X0193
X0237Y0114
Y0124
Y0134
T05
X0185878Y018261
X0233122
Y0206232
X0185878
T06
X0009Y01585
X0019
X0237Y0159
Y0149
X02385Y0098
X02285
Y00855
X02385
X02125Y00885
Y00985
X00745Y01975
Y02075
T07
X003752Y0206268
X0009961
M30
