%FSTAX23Y23*%
%MOIN*%
%SFA1B1*%

%IPPOS*%
%ADD71R,0.067910X0.067910*%
%ADD72C,0.067910*%
%ADD73C,0.051180*%
%ADD74C,0.067320*%
%ADD75R,0.067910X0.067910*%
%ADD76R,0.055750X0.055750*%
%ADD77C,0.055750*%
%ADD78C,0.047240*%
%ADD79C,0.092440*%
%ADD80R,0.064960X0.064960*%
%ADD81C,0.064960*%
%ADD82R,0.064960X0.064960*%
%LNxksoilsensor-1*%
%LPD*%
G54D71*
X02125Y00885D03*
X0237Y0149D03*
X00745Y01975D03*
G54D72*
X02125Y00985D03*
X02285Y0098D03*
Y00855D03*
X0019Y01585D03*
X0237Y0159D03*
X00745Y02075D03*
G54D73*
X02252Y01895D03*
X02095D03*
X01937D03*
G54D74*
X02331Y02062D03*
Y01826D03*
X01858D03*
Y02062D03*
G54D75*
X02385Y0098D03*
Y00855D03*
X0009Y01585D03*
G54D76*
X00095Y01335D03*
G54D77*
X00095Y01435D03*
G54D78*
X00325Y0198D03*
X00149D03*
G54D79*
X00099Y02062D03*
X00375D03*
G54D80*
X00425Y00845D03*
X00926D03*
X01428D03*
X0193D03*
G54D81*
X00325Y00845D03*
X00225D03*
X00125D03*
X00826D03*
X00726D03*
X00626D03*
X0237Y0124D03*
Y0134D03*
X01328Y00845D03*
X01228D03*
X01128D03*
X0183D03*
X0173D03*
X0163D03*
G54D82*
X0237Y0114D03*
M02*