%FSTAX23Y23*%
%MOIN*%
%SFA1B1*%

%IPPOS*%
%ADD35R,0.045400X0.065090*%
%ADD36R,0.045800X0.066660*%
%ADD37R,0.046980X0.065870*%
%ADD38R,0.051310X0.086740*%
%ADD39R,0.086740X0.051310*%
%ADD40R,0.047370X0.065090*%
%ADD41R,0.047370X0.029650*%
%ADD42R,0.045400X0.031620*%
%ADD43R,0.065090X0.045400*%
%ADD44R,0.053280X0.065090*%
%ADD45R,0.039500X0.019810*%
%ADD46R,0.076900X0.104460*%
%ADD47R,0.065090X0.047370*%
%ADD48R,0.065870X0.048160*%
%ADD49R,0.271780X0.271780*%
%ADD50R,0.070990X0.126110*%
%ADD51R,0.065090X0.053280*%
%ADD52R,0.023750X0.055240*%
%ADD53R,0.043430X0.043430*%
%ADD54R,0.067060X0.043430*%
%ADD55R,0.043430X0.067060*%
%ADD56R,0.075910X0.075910*%
%ADD57C,0.075910*%
%ADD58C,0.059180*%
%ADD59C,0.075320*%
%ADD60R,0.075910X0.075910*%
%ADD61R,0.063750X0.063750*%
%ADD62C,0.063750*%
%ADD63C,0.055240*%
%ADD64C,0.100440*%
%ADD65R,0.072960X0.072960*%
%ADD66C,0.072960*%
%ADD67R,0.072960X0.072960*%
%ADD68C,0.031620*%
%LNxksoilsensor-1*%
%LPD*%
G54D35*
X0008Y00515D03*
X00159D03*
X0008Y00625D03*
X00159D03*
X0069Y0052D03*
X00769D03*
X00692Y00625D03*
X00771D03*
X01111Y0053D03*
X0119D03*
X0111Y0062D03*
X01189D03*
X0161Y00515D03*
X01688D03*
X0161Y00625D03*
X01688D03*
X01902Y00995D03*
X01977D03*
G54D36*
X00526Y01465D03*
X00593D03*
X01791Y01525D03*
X01858D03*
X01801Y01625D03*
X01868D03*
G54D37*
X00525Y0156D03*
X0059D03*
G54D38*
X01965Y0123D03*
X02154D03*
G54D39*
X0206Y01324D03*
Y01135D03*
G54D40*
X01747Y01125D03*
X01822D03*
X00412Y01025D03*
X00337D03*
X0051D03*
X00584D03*
X00192Y01175D03*
X00117D03*
X00537Y02055D03*
X00612D03*
G54D41*
X01752Y01285D03*
Y01234D03*
X01827Y0126D03*
G54D42*
X0196Y01507D03*
Y0147D03*
Y01432D03*
X02069D03*
Y01507D03*
G54D43*
X0033Y01547D03*
Y01622D03*
G54D44*
X00125Y0104D03*
X00195D03*
X00329Y01175D03*
X004D03*
X0052Y0167D03*
X0059D03*
X0052Y01815D03*
X0059D03*
G54D45*
X0031Y01359D03*
Y01339D03*
Y0132D03*
Y013D03*
Y0128D03*
X00429D03*
Y013D03*
Y0132D03*
Y01339D03*
Y01359D03*
G54D46*
X0037Y0132D03*
G54D47*
X00585Y01354D03*
Y0128D03*
G54D48*
X02195Y00658D03*
Y00721D03*
G54D49*
X0228Y00195D03*
G54D50*
X02189Y00456D03*
X0237D03*
G54D51*
X02365Y00649D03*
Y0072D03*
G54D52*
X00288Y02001D03*
X00262D03*
X00237D03*
X00211D03*
X00186D03*
G54D53*
X01225Y0159D03*
Y01535D03*
Y01479D03*
X0117D03*
X01114D03*
Y01535D03*
Y0159D03*
X0117D03*
Y01535D03*
G54D54*
X01573Y01838D03*
Y01788D03*
Y01738D03*
Y01688D03*
Y01638D03*
Y01588D03*
Y01538D03*
Y01488D03*
Y01438D03*
Y01388D03*
Y01338D03*
Y01288D03*
Y01238D03*
Y01188D03*
X00884D03*
Y01238D03*
Y01288D03*
Y01338D03*
Y01388D03*
Y01438D03*
Y01488D03*
Y01538D03*
Y01588D03*
Y01638D03*
Y01688D03*
Y01738D03*
Y01788D03*
Y01838D03*
G54D55*
X01504Y01139D03*
X01454D03*
X01404D03*
X01354D03*
X01304D03*
X01254D03*
X01204D03*
X01154D03*
X01104D03*
X01054D03*
X01004D03*
X00954D03*
G54D56*
X02125Y00885D03*
X0237Y0149D03*
X00745Y01975D03*
G54D57*
X02125Y00985D03*
X02285Y0098D03*
Y00855D03*
X0019Y01585D03*
X0237Y0159D03*
X00745Y02075D03*
G54D58*
X02252Y01895D03*
X02095D03*
X01937D03*
G54D59*
X02331Y02062D03*
Y01826D03*
X01858D03*
Y02062D03*
G54D60*
X02385Y0098D03*
Y00855D03*
X0009Y01585D03*
G54D61*
X00095Y01335D03*
G54D62*
X00095Y01435D03*
G54D63*
X00325Y0198D03*
X00149D03*
G54D64*
X00099Y02062D03*
X00375D03*
G54D65*
X00425Y00845D03*
X00926D03*
X01428D03*
X0193D03*
G54D66*
X00325Y00845D03*
X00225D03*
X00125D03*
X00826D03*
X00726D03*
X00626D03*
X0237Y0124D03*
Y0134D03*
X01328Y00845D03*
X01228D03*
X01128D03*
X0183D03*
X0173D03*
X0163D03*
G54D67*
X0237Y0114D03*
G54D68*
X01543Y00867D03*
X01937Y01131D03*
X01702Y01141D03*
X01702Y01192D03*
X01675Y0103D03*
X01788Y00927D03*
X01957Y01636D03*
X02167Y01611D03*
X00828Y00947D03*
X007Y01037D03*
X00239Y0099D03*
X0023Y01101D03*
X00493Y0122D03*
X01054D03*
X0143Y01755D03*
X00686Y01706D03*
X01084Y01815D03*
X00396D03*
X01726Y0153D03*
X01Y01D03*
X00274Y01226D03*
X01661Y01435D03*
X00498Y01728D03*
X00345Y01875D03*
X01065Y01725D03*
X01637Y01556D03*
M02*