%FSTAX23Y23*%
%MOIN*%
%SFA1B1*%

%IPPOS*%
%ADD10C,0.007870*%
%ADD11C,0.009840*%
%ADD12C,0.003940*%
%ADD13C,0.010000*%
%LNxksoilsensor-1*%
%LPD*%
G54D10*
X02256Y01792D02*
D01*
X02256Y01792*
X02256Y01793*
X02256Y01793*
X02256Y01793*
X02256Y01793*
X02256Y01794*
X02255Y01794*
X02255Y01794*
X02255Y01794*
X02255Y01795*
X02255Y01795*
X02255Y01795*
X02254Y01795*
X02254Y01795*
X02254Y01796*
X02254Y01796*
X02253Y01796*
X02253Y01796*
X02253Y01796*
X02253Y01796*
X02252Y01796*
X02252Y01796*
X02252*
X02252Y01796*
X02251Y01796*
X02251Y01796*
X02251Y01796*
X02251Y01796*
X0225Y01796*
X0225Y01796*
X0225Y01795*
X0225Y01795*
X02249Y01795*
X02249Y01795*
X02249Y01795*
X02249Y01794*
X02249Y01794*
X02249Y01794*
X02248Y01794*
X02248Y01793*
X02248Y01793*
X02248Y01793*
X02248Y01793*
X02248Y01792*
X02248Y01792*
D01*
X02248Y01792*
X02248Y01792*
X02248Y01791*
X02248Y01791*
X02248Y01791*
X02248Y01791*
X02249Y0179*
X02249Y0179*
X02249Y0179*
X02249Y0179*
X02249Y01789*
X02249Y01789*
X0225Y01789*
X0225Y01789*
X0225Y01789*
X0225Y01789*
X02251Y01788*
X02251Y01788*
X02251Y01788*
X02251Y01788*
X02252Y01788*
X02252Y01788*
X02252*
X02252Y01788*
X02253Y01788*
X02253Y01788*
X02253Y01788*
X02253Y01788*
X02254Y01789*
X02254Y01789*
X02254Y01789*
X02254Y01789*
X02255Y01789*
X02255Y01789*
X02255Y0179*
X02255Y0179*
X02255Y0179*
X02255Y0179*
X02256Y01791*
X02256Y01791*
X02256Y01791*
X02256Y01791*
X02256Y01792*
X02256Y01792*
X02256Y01792*
X0193Y0123D02*
D01*
X0193Y0123*
X0193Y0123*
X01929Y0123*
X01929Y01231*
X01929Y01231*
X01929Y01231*
X01929Y01231*
X01929Y01232*
X01929Y01232*
X01929Y01232*
X01928Y01232*
X01928Y01232*
X01928Y01233*
X01928Y01233*
X01928Y01233*
X01927Y01233*
X01927Y01233*
X01927Y01233*
X01927Y01233*
X01926Y01233*
X01926Y01233*
X01926Y01233*
X01926*
X01925Y01233*
X01925Y01233*
X01925Y01233*
X01924Y01233*
X01924Y01233*
X01924Y01233*
X01924Y01233*
X01923Y01233*
X01923Y01233*
X01923Y01232*
X01923Y01232*
X01923Y01232*
X01922Y01232*
X01922Y01232*
X01922Y01231*
X01922Y01231*
X01922Y01231*
X01922Y01231*
X01922Y0123*
X01922Y0123*
X01922Y0123*
X01922Y0123*
X01922Y01229*
X01922Y01229*
X01922Y01229*
X01922Y01228*
X01922Y01228*
X01922Y01228*
X01922Y01228*
X01922Y01227*
X01922Y01227*
X01923Y01227*
X01923Y01227*
X01923Y01227*
X01923Y01226*
X01923Y01226*
X01924Y01226*
X01924Y01226*
X01924Y01226*
X01924Y01226*
X01925Y01226*
X01925Y01226*
X01925Y01226*
X01926Y01226*
X01926*
X01926Y01226*
X01926Y01226*
X01927Y01226*
X01927Y01226*
X01927Y01226*
X01927Y01226*
X01928Y01226*
X01928Y01226*
X01928Y01226*
X01928Y01227*
X01928Y01227*
X01929Y01227*
X01929Y01227*
X01929Y01227*
X01929Y01228*
X01929Y01228*
X01929Y01228*
X01929Y01228*
X01929Y01229*
X0193Y01229*
X0193Y01229*
X0193Y0123*
X00093Y0104D02*
D01*
X00093Y0104*
X00093Y0104*
X00093Y0104*
X00093Y0104*
X00093Y0104*
X00093Y0104*
X00093Y0104*
X00093Y01041*
X00093Y01041*
X00093Y01041*
X00092Y01041*
X00092Y01041*
X00092Y01041*
X00092Y01041*
X00092Y01041*
X00092Y01041*
X00092Y01041*
X00092Y01041*
X00092Y01041*
X00091Y01041*
X00091Y01041*
X00091Y01041*
X00091*
X00091Y01041*
X00091Y01041*
X00091Y01041*
X0009Y01041*
X0009Y01041*
X0009Y01041*
X0009Y01041*
X0009Y01041*
X0009Y01041*
X0009Y01041*
X0009Y01041*
X0009Y01041*
X00089Y01041*
X00089Y01041*
X00089Y0104*
X00089Y0104*
X00089Y0104*
X00089Y0104*
X00089Y0104*
X00089Y0104*
X00089Y0104*
X00089Y0104*
X00089Y01039*
X00089Y01039*
X00089Y01039*
X00089Y01039*
X00089Y01039*
X00089Y01039*
X00089Y01039*
X00089Y01038*
X00089Y01038*
X0009Y01038*
X0009Y01038*
X0009Y01038*
X0009Y01038*
X0009Y01038*
X0009Y01038*
X0009Y01038*
X0009Y01038*
X0009Y01038*
X00091Y01038*
X00091Y01038*
X00091Y01038*
X00091Y01038*
X00091*
X00091Y01038*
X00091Y01038*
X00092Y01038*
X00092Y01038*
X00092Y01038*
X00092Y01038*
X00092Y01038*
X00092Y01038*
X00092Y01038*
X00092Y01038*
X00092Y01038*
X00093Y01038*
X00093Y01038*
X00093Y01038*
X00093Y01039*
X00093Y01039*
X00093Y01039*
X00093Y01039*
X00093Y01039*
X00093Y01039*
X00093Y01039*
X00093Y0104*
X00297Y01175D02*
D01*
X00297Y01175*
X00297Y01175*
X00297Y01175*
X00297Y01175*
X00297Y01175*
X00297Y01175*
X00297Y01175*
X00297Y01176*
X00297Y01176*
X00297Y01176*
X00297Y01176*
X00296Y01176*
X00296Y01176*
X00296Y01176*
X00296Y01176*
X00296Y01176*
X00296Y01176*
X00296Y01176*
X00296Y01176*
X00296Y01176*
X00295Y01176*
X00295Y01176*
X00295*
X00295Y01176*
X00295Y01176*
X00295Y01176*
X00295Y01176*
X00294Y01176*
X00294Y01176*
X00294Y01176*
X00294Y01176*
X00294Y01176*
X00294Y01176*
X00294Y01176*
X00294Y01176*
X00294Y01176*
X00293Y01176*
X00293Y01175*
X00293Y01175*
X00293Y01175*
X00293Y01175*
X00293Y01175*
X00293Y01175*
X00293Y01175*
X00293Y01175*
X00293Y01174*
X00293Y01174*
X00293Y01174*
X00293Y01174*
X00293Y01174*
X00293Y01174*
X00293Y01174*
X00293Y01173*
X00294Y01173*
X00294Y01173*
X00294Y01173*
X00294Y01173*
X00294Y01173*
X00294Y01173*
X00294Y01173*
X00294Y01173*
X00294Y01173*
X00295Y01173*
X00295Y01173*
X00295Y01173*
X00295Y01173*
X00295Y01173*
X00295*
X00295Y01173*
X00296Y01173*
X00296Y01173*
X00296Y01173*
X00296Y01173*
X00296Y01173*
X00296Y01173*
X00296Y01173*
X00296Y01173*
X00296Y01173*
X00297Y01173*
X00297Y01173*
X00297Y01173*
X00297Y01173*
X00297Y01174*
X00297Y01174*
X00297Y01174*
X00297Y01174*
X00297Y01174*
X00297Y01174*
X00297Y01174*
X00297Y01175*
X02366Y00616D02*
D01*
X02366Y00616*
X02366Y00616*
X02366Y00616*
X02366Y00616*
X02366Y00616*
X02366Y00616*
X02366Y00617*
X02366Y00617*
X02366Y00617*
X02366Y00617*
X02366Y00617*
X02366Y00617*
X02366Y00617*
X02366Y00617*
X02365Y00617*
X02365Y00617*
X02365Y00617*
X02365Y00617*
X02365Y00618*
X02365Y00618*
X02365Y00618*
X02365Y00618*
X02364*
X02364Y00618*
X02364Y00618*
X02364Y00618*
X02364Y00617*
X02364Y00617*
X02364Y00617*
X02364Y00617*
X02363Y00617*
X02363Y00617*
X02363Y00617*
X02363Y00617*
X02363Y00617*
X02363Y00617*
X02363Y00617*
X02363Y00617*
X02363Y00616*
X02363Y00616*
X02363Y00616*
X02363Y00616*
X02363Y00616*
X02363Y00616*
X02363Y00616*
X02363Y00615*
X02363Y00615*
X02363Y00615*
X02363Y00615*
X02363Y00615*
X02363Y00615*
X02363Y00615*
X02363Y00615*
X02363Y00614*
X02363Y00614*
X02363Y00614*
X02363Y00614*
X02363Y00614*
X02363Y00614*
X02364Y00614*
X02364Y00614*
X02364Y00614*
X02364Y00614*
X02364Y00614*
X02364Y00614*
X02364Y00614*
X02364Y00614*
X02365*
X02365Y00614*
X02365Y00614*
X02365Y00614*
X02365Y00614*
X02365Y00614*
X02365Y00614*
X02365Y00614*
X02366Y00614*
X02366Y00614*
X02366Y00614*
X02366Y00614*
X02366Y00614*
X02366Y00614*
X02366Y00615*
X02366Y00615*
X02366Y00615*
X02366Y00615*
X02366Y00615*
X02366Y00615*
X02366Y00615*
X02366Y00615*
X02366Y00616*
X00288Y01947D02*
D01*
X00288Y01947*
X00288Y01947*
X00287Y01947*
X00287Y01947*
X00287Y01947*
X00286Y01947*
X00286Y01947*
X00286Y01946*
X00286Y01946*
X00286Y01946*
X00285Y01946*
X00285Y01946*
X00285Y01946*
X00285Y01945*
X00285Y01945*
X00285Y01945*
X00284Y01945*
X00284Y01944*
X00284Y01944*
X00284Y01944*
X00284Y01943*
X00284Y01943*
Y01943*
X00284Y01943*
X00284Y01942*
X00284Y01942*
X00284Y01942*
X00284Y01942*
X00285Y01941*
X00285Y01941*
X00285Y01941*
X00285Y01941*
X00285Y0194*
X00285Y0194*
X00286Y0194*
X00286Y0194*
X00286Y0194*
X00286Y0194*
X00286Y01939*
X00287Y01939*
X00287Y01939*
X00287Y01939*
X00288Y01939*
X00288Y01939*
X00288Y01939*
D01*
X00288Y01939*
X00289Y01939*
X00289Y01939*
X00289Y01939*
X00289Y01939*
X0029Y01939*
X0029Y0194*
X0029Y0194*
X0029Y0194*
X00291Y0194*
X00291Y0194*
X00291Y0194*
X00291Y01941*
X00291Y01941*
X00291Y01941*
X00292Y01941*
X00292Y01942*
X00292Y01942*
X00292Y01942*
X00292Y01942*
X00292Y01943*
X00292Y01943*
Y01943*
X00292Y01944*
X00292Y01944*
X00292Y01944*
X00292Y01944*
X00292Y01945*
X00292Y01945*
X00291Y01945*
X00291Y01945*
X00291Y01946*
X00291Y01946*
X00291Y01946*
X00291Y01946*
X0029Y01946*
X0029Y01946*
X0029Y01947*
X0029Y01947*
X00289Y01947*
X00289Y01947*
X00289Y01947*
X00289Y01947*
X00288Y01947*
X00288*
X00488Y0167D02*
D01*
X00488Y0167*
X00488Y0167*
X00488Y0167*
X00488Y0167*
X00488Y0167*
X00488Y0167*
X00488Y0167*
X00488Y01671*
X00488Y01671*
X00488Y01671*
X00487Y01671*
X00487Y01671*
X00487Y01671*
X00487Y01671*
X00487Y01671*
X00487Y01671*
X00487Y01671*
X00487Y01671*
X00487Y01671*
X00486Y01671*
X00486Y01671*
X00486Y01671*
X00486*
X00486Y01671*
X00486Y01671*
X00486Y01671*
X00485Y01671*
X00485Y01671*
X00485Y01671*
X00485Y01671*
X00485Y01671*
X00485Y01671*
X00485Y01671*
X00485Y01671*
X00485Y01671*
X00484Y01671*
X00484Y01671*
X00484Y0167*
X00484Y0167*
X00484Y0167*
X00484Y0167*
X00484Y0167*
X00484Y0167*
X00484Y0167*
X00484Y0167*
X00484Y01669*
X00484Y01669*
X00484Y01669*
X00484Y01669*
X00484Y01669*
X00484Y01669*
X00484Y01669*
X00484Y01668*
X00484Y01668*
X00485Y01668*
X00485Y01668*
X00485Y01668*
X00485Y01668*
X00485Y01668*
X00485Y01668*
X00485Y01668*
X00485Y01668*
X00485Y01668*
X00486Y01668*
X00486Y01668*
X00486Y01668*
X00486Y01668*
X00486*
X00486Y01668*
X00486Y01668*
X00487Y01668*
X00487Y01668*
X00487Y01668*
X00487Y01668*
X00487Y01668*
X00487Y01668*
X00487Y01668*
X00487Y01668*
X00487Y01668*
X00488Y01668*
X00488Y01668*
X00488Y01668*
X00488Y01669*
X00488Y01669*
X00488Y01669*
X00488Y01669*
X00488Y01669*
X00488Y01669*
X00488Y01669*
X00488Y0167*
X00827Y01838D02*
D01*
X00827Y01838*
X00827Y01838*
X00827Y01838*
X00827Y01838*
X00827Y01838*
X00827Y01838*
X00827Y01838*
X00827Y01837*
X00827Y01837*
X00827Y01837*
X00828Y01837*
X00828Y01837*
X00828Y01837*
X00828Y01837*
X00828Y01837*
X00828Y01837*
X00828Y01837*
X00828Y01837*
X00828Y01837*
X00829Y01836*
X00829Y01836*
X00829Y01836*
X00829*
X00829Y01836*
X00829Y01836*
X00829Y01837*
X0083Y01837*
X0083Y01837*
X0083Y01837*
X0083Y01837*
X0083Y01837*
X0083Y01837*
X0083Y01837*
X0083Y01837*
X0083Y01837*
X00831Y01837*
X00831Y01837*
X00831Y01838*
X00831Y01838*
X00831Y01838*
X00831Y01838*
X00831Y01838*
X00831Y01838*
X00831Y01838*
X00831Y01838*
D01*
X00831Y01839*
X00831Y01839*
X00831Y01839*
X00831Y01839*
X00831Y01839*
X00831Y01839*
X00831Y01839*
X00831Y01839*
X00831Y0184*
X0083Y0184*
X0083Y0184*
X0083Y0184*
X0083Y0184*
X0083Y0184*
X0083Y0184*
X0083Y0184*
X0083Y0184*
X0083Y0184*
X00829Y0184*
X00829Y0184*
X00829Y0184*
X00829Y0184*
X00829*
X00829Y0184*
X00829Y0184*
X00828Y0184*
X00828Y0184*
X00828Y0184*
X00828Y0184*
X00828Y0184*
X00828Y0184*
X00828Y0184*
X00828Y0184*
X00828Y0184*
X00827Y0184*
X00827Y0184*
X00827Y01839*
X00827Y01839*
X00827Y01839*
X00827Y01839*
X00827Y01839*
X00827Y01839*
X00827Y01839*
X00827Y01839*
X00827Y01838*
D01*
X00827Y01838*
X00827Y01838*
X00827Y01838*
X00827Y01838*
X00827Y01838*
X00827Y01838*
X00827Y01838*
X00827Y01837*
X00827Y01837*
X00827Y01837*
X00828Y01837*
X00828Y01837*
X00828Y01837*
X00828Y01837*
X00828Y01837*
X00828Y01837*
X00828Y01837*
X00828Y01837*
X00828Y01837*
X00829Y01836*
X00829Y01836*
X00829Y01836*
X00829*
X00829Y01836*
X00829Y01836*
X00829Y01837*
X0083Y01837*
X0083Y01837*
X0083Y01837*
X0083Y01837*
X0083Y01837*
X0083Y01837*
X0083Y01837*
X0083Y01837*
X0083Y01837*
X00831Y01837*
X00831Y01837*
X00831Y01838*
X00831Y01838*
X00831Y01838*
X00831Y01838*
X00831Y01838*
X00831Y01838*
X00831Y01838*
X00831Y01838*
X00488Y01815D02*
D01*
X00488Y01815*
X00488Y01815*
X00488Y01815*
X00488Y01815*
X00488Y01815*
X00488Y01815*
X00488Y01815*
X00488Y01816*
X00488Y01816*
X00488Y01816*
X00487Y01816*
X00487Y01816*
X00487Y01816*
X00487Y01816*
X00487Y01816*
X00487Y01816*
X00487Y01816*
X00487Y01816*
X00487Y01816*
X00486Y01816*
X00486Y01816*
X00486Y01816*
X00486*
X00486Y01816*
X00486Y01816*
X00486Y01816*
X00485Y01816*
X00485Y01816*
X00485Y01816*
X00485Y01816*
X00485Y01816*
X00485Y01816*
X00485Y01816*
X00485Y01816*
X00485Y01816*
X00484Y01816*
X00484Y01816*
X00484Y01815*
X00484Y01815*
X00484Y01815*
X00484Y01815*
X00484Y01815*
X00484Y01815*
X00484Y01815*
X00484Y01815*
X00484Y01814*
X00484Y01814*
X00484Y01814*
X00484Y01814*
X00484Y01814*
X00484Y01814*
X00484Y01814*
X00484Y01813*
X00484Y01813*
X00485Y01813*
X00485Y01813*
X00485Y01813*
X00485Y01813*
X00485Y01813*
X00485Y01813*
X00485Y01813*
X00485Y01813*
X00485Y01813*
X00486Y01813*
X00486Y01813*
X00486Y01813*
X00486Y01813*
X00486*
X00486Y01813*
X00486Y01813*
X00487Y01813*
X00487Y01813*
X00487Y01813*
X00487Y01813*
X00487Y01813*
X00487Y01813*
X00487Y01813*
X00487Y01813*
X00487Y01813*
X00488Y01813*
X00488Y01813*
X00488Y01813*
X00488Y01814*
X00488Y01814*
X00488Y01814*
X00488Y01814*
X00488Y01814*
X00488Y01814*
X00488Y01814*
X00488Y01815*
X02125Y00829D02*
X02178D01*
Y0104*
X02071D02*
X02178D01*
X02071Y00885D02*
Y0104D01*
X0012Y00494D02*
Y00535D01*
Y00604D02*
Y00645D01*
X0073Y00499D02*
Y0054D01*
X00731Y00604D02*
Y00645D01*
X0115Y00509D02*
Y0055D01*
X0115Y00599D02*
Y0064D01*
X01649Y00494D02*
Y00535D01*
Y00604D02*
Y00645D01*
X0056Y01442D02*
Y01487D01*
X0244Y0098D02*
Y01033D01*
X02229D02*
X0244D01*
X02229Y00926D02*
Y01033D01*
Y00926D02*
X02385D01*
X01785Y01104D02*
Y01145D01*
X00375Y01004D02*
Y01045D01*
X01786Y01299D02*
X01793D01*
Y0122D02*
Y01299D01*
X01786Y0122D02*
X01793D01*
X01786D02*
Y01299D01*
X01732Y01306D02*
X01772D01*
X0244Y00855D02*
Y00908D01*
X02229D02*
X0244D01*
X02229Y00801D02*
Y00908D01*
Y00801D02*
X02385D01*
X00547Y01004D02*
Y01045D01*
X01995Y01531D02*
X02034D01*
X01995Y01408D02*
X02034D01*
X01995D02*
Y01531D01*
X02034Y01408D02*
Y01531D01*
X00034Y01531D02*
Y01585D01*
Y01531D02*
X00245D01*
Y01638*
X0009D02*
X00245D01*
X0187Y01037D02*
X01977D01*
X0187Y00952D02*
Y01037D01*
Y00952D02*
X01977D01*
X00287Y01515D02*
Y01622D01*
Y01515D02*
X00372D01*
Y01622*
X01825Y01502D02*
Y01547D01*
X01835Y01602D02*
Y01647D01*
X00564Y01317D02*
X00605D01*
X00155Y01154D02*
Y01195D01*
X0237Y01434D02*
X02423D01*
Y01645*
X02316D02*
X02423D01*
X02316Y0149D02*
Y01645D01*
X00575Y02034D02*
Y02075D01*
X00745Y01919D02*
X00798D01*
Y0213*
X00691D02*
X00798D01*
X00691Y01975D02*
Y0213D01*
X01583Y01879D02*
Y02133D01*
X00874D02*
X01583D01*
X00874Y01879D02*
Y02133D01*
X00475Y00845D02*
Y00895D01*
X00075D02*
X00475D01*
X00075Y00795D02*
Y00895D01*
Y00795D02*
X00425D01*
X00976Y00845D02*
Y00895D01*
X00576D02*
X00976D01*
X00576Y00795D02*
Y00895D01*
Y00795D02*
X00926D01*
X0237Y0109D02*
X0242D01*
Y0139*
X0232D02*
X0242D01*
X0232Y0114D02*
Y0139D01*
X01478Y00845D02*
Y00895D01*
X01078D02*
X01478D01*
X01078Y00795D02*
Y00895D01*
Y00795D02*
X01428D01*
X0198Y00845D02*
Y00895D01*
X0158D02*
X0198D01*
X0158Y00795D02*
Y00895D01*
Y00795D02*
X0193D01*
G54D11*
X01965Y0154D02*
D01*
X01965Y01541*
X01965Y01541*
X01965Y01541*
X01965Y01542*
X01965Y01542*
X01965Y01542*
X01965Y01543*
X01965Y01543*
X01964Y01543*
X01964Y01544*
X01964Y01544*
X01964Y01544*
X01963Y01544*
X01963Y01544*
X01963Y01545*
X01963Y01545*
X01962Y01545*
X01962Y01545*
X01962Y01545*
X01961Y01545*
X01961Y01545*
X01961Y01545*
X0196*
X0196Y01545*
X0196Y01545*
X01959Y01545*
X01959Y01545*
X01959Y01545*
X01958Y01545*
X01958Y01545*
X01958Y01544*
X01957Y01544*
X01957Y01544*
X01957Y01544*
X01957Y01544*
X01956Y01543*
X01956Y01543*
X01956Y01543*
X01956Y01542*
X01956Y01542*
X01956Y01542*
X01956Y01541*
X01955Y01541*
X01955Y01541*
X01955Y0154*
X01955Y0154*
X01955Y0154*
X01956Y01539*
X01956Y01539*
X01956Y01539*
X01956Y01538*
X01956Y01538*
X01956Y01538*
X01956Y01537*
X01957Y01537*
X01957Y01537*
X01957Y01537*
X01957Y01536*
X01958Y01536*
X01958Y01536*
X01958Y01536*
X01959Y01536*
X01959Y01536*
X01959Y01536*
X0196Y01536*
X0196Y01535*
X0196Y01535*
X01961*
X01961Y01535*
X01961Y01536*
X01962Y01536*
X01962Y01536*
X01962Y01536*
X01963Y01536*
X01963Y01536*
X01963Y01536*
X01963Y01536*
X01964Y01537*
X01964Y01537*
X01964Y01537*
X01964Y01537*
X01965Y01538*
X01965Y01538*
X01965Y01538*
X01965Y01539*
X01965Y01539*
X01965Y01539*
X01965Y0154*
X01965Y0154*
X01965Y0154*
X003Y01384D02*
D01*
X003Y01385*
X003Y01385*
X003Y01385*
X00299Y01386*
X00299Y01386*
X00299Y01386*
X00299Y01387*
X00299Y01387*
X00299Y01387*
X00298Y01388*
X00298Y01388*
X00298Y01388*
X00298Y01388*
X00297Y01389*
X00297Y01389*
X00297Y01389*
X00297Y01389*
X00296Y01389*
X00296Y01389*
X00296Y01389*
X00295Y01389*
X00295Y01389*
X00295*
X00294Y01389*
X00294Y01389*
X00294Y01389*
X00293Y01389*
X00293Y01389*
X00293Y01389*
X00292Y01389*
X00292Y01389*
X00292Y01388*
X00291Y01388*
X00291Y01388*
X00291Y01388*
X00291Y01387*
X00291Y01387*
X0029Y01387*
X0029Y01386*
X0029Y01386*
X0029Y01386*
X0029Y01385*
X0029Y01385*
X0029Y01385*
X0029Y01384*
X0029Y01384*
X0029Y01384*
X0029Y01383*
X0029Y01383*
X0029Y01383*
X0029Y01382*
X0029Y01382*
X00291Y01382*
X00291Y01382*
X00291Y01381*
X00291Y01381*
X00291Y01381*
X00292Y01381*
X00292Y0138*
X00292Y0138*
X00293Y0138*
X00293Y0138*
X00293Y0138*
X00294Y0138*
X00294Y0138*
X00294Y0138*
X00295Y0138*
X00295*
X00295Y0138*
X00296Y0138*
X00296Y0138*
X00296Y0138*
X00297Y0138*
X00297Y0138*
X00297Y0138*
X00297Y0138*
X00298Y01381*
X00298Y01381*
X00298Y01381*
X00298Y01381*
X00299Y01382*
X00299Y01382*
X00299Y01382*
X00299Y01382*
X00299Y01383*
X00299Y01383*
X003Y01383*
X003Y01384*
X003Y01384*
X003Y01384*
G54D12*
X02366Y00533D02*
D01*
X02366Y00533*
X02366Y00533*
X02366Y00533*
X02366Y00533*
X02366Y00532*
X02366Y00532*
X02366Y00532*
X02366Y00532*
X02366Y00532*
X02367Y00532*
X02367Y00532*
X02367Y00532*
X02367Y00532*
X02367Y00531*
X02367Y00531*
X02367Y00531*
X02367Y00531*
X02367Y00531*
X02368Y00531*
X02368Y00531*
X02368Y00531*
X02368Y00531*
X02368*
X02368Y00531*
X02368Y00531*
X02369Y00531*
X02369Y00531*
X02369Y00531*
X02369Y00531*
X02369Y00531*
X02369Y00531*
X02369Y00532*
X02369Y00532*
X02369Y00532*
X0237Y00532*
X0237Y00532*
X0237Y00532*
X0237Y00532*
X0237Y00532*
X0237Y00532*
X0237Y00533*
X0237Y00533*
X0237Y00533*
X0237Y00533*
X0237Y00533*
D01*
X0237Y00533*
X0237Y00533*
X0237Y00533*
X0237Y00534*
X0237Y00534*
X0237Y00534*
X0237Y00534*
X0237Y00534*
X0237Y00534*
X0237Y00534*
X02369Y00534*
X02369Y00535*
X02369Y00535*
X02369Y00535*
X02369Y00535*
X02369Y00535*
X02369Y00535*
X02369Y00535*
X02369Y00535*
X02368Y00535*
X02368Y00535*
X02368Y00535*
X02368*
X02368Y00535*
X02368Y00535*
X02368Y00535*
X02367Y00535*
X02367Y00535*
X02367Y00535*
X02367Y00535*
X02367Y00535*
X02367Y00535*
X02367Y00535*
X02367Y00534*
X02367Y00534*
X02366Y00534*
X02366Y00534*
X02366Y00534*
X02366Y00534*
X02366Y00534*
X02366Y00534*
X02366Y00533*
X02366Y00533*
X02366Y00533*
X02366Y00533*
X00095Y0129D02*
D01*
X00094Y0129*
X00094Y0129*
X00094Y0129*
X00094Y0129*
X00094Y0129*
X00094Y0129*
X00094Y0129*
X00093Y0129*
X00093Y0129*
X00093Y0129*
X00093Y01289*
X00093Y01289*
X00093Y01289*
X00093Y01289*
X00093Y01289*
X00093Y01289*
X00093Y01289*
X00093Y01289*
X00093Y01289*
X00093Y01288*
X00093Y01288*
X00093Y01288*
Y01288*
X00093Y01288*
X00093Y01288*
X00093Y01288*
X00093Y01287*
X00093Y01287*
X00093Y01287*
X00093Y01287*
X00093Y01287*
X00093Y01287*
X00093Y01287*
X00093Y01287*
X00093Y01287*
X00093Y01286*
X00093Y01286*
X00094Y01286*
X00094Y01286*
X00094Y01286*
X00094Y01286*
X00094Y01286*
X00094Y01286*
X00094Y01286*
X00095Y01286*
D01*
X00095Y01286*
X00095Y01286*
X00095Y01286*
X00095Y01286*
X00095Y01286*
X00095Y01286*
X00095Y01286*
X00096Y01286*
X00096Y01286*
X00096Y01287*
X00096Y01287*
X00096Y01287*
X00096Y01287*
X00096Y01287*
X00096Y01287*
X00096Y01287*
X00096Y01287*
X00096Y01287*
X00096Y01288*
X00096Y01288*
X00096Y01288*
X00096Y01288*
Y01288*
X00096Y01288*
X00096Y01288*
X00096Y01289*
X00096Y01289*
X00096Y01289*
X00096Y01289*
X00096Y01289*
X00096Y01289*
X00096Y01289*
X00096Y01289*
X00096Y01289*
X00096Y0129*
X00096Y0129*
X00096Y0129*
X00095Y0129*
X00095Y0129*
X00095Y0129*
X00095Y0129*
X00095Y0129*
X00095Y0129*
X00095Y0129*
X00095Y0129*
X02366Y01865D02*
Y02022D01*
X01937Y02072D02*
X02252D01*
X01823Y01865D02*
Y02022D01*
X01937Y01816D02*
X02252D01*
X01961Y01277D02*
X02012Y01328D01*
X02107Y01131D02*
X02158Y01182D01*
X01961D02*
X02012Y01131D01*
X02107Y01328D02*
X02158Y01277D01*
X02407Y00332D02*
Y00356D01*
X02152D02*
X02407D01*
X02152Y00332D02*
Y00356D01*
X00089Y02143D02*
Y02182D01*
X00385*
Y02123D02*
Y02182D01*
Y01985D02*
Y02001D01*
X00089Y01985D02*
Y02001D01*
G54D13*
X0078Y00334D02*
X00799Y00295D01*
X00819Y00334*
X00839Y00295D02*
X00859D01*
X00849*
Y00354*
X00839Y00344*
X00889Y00295D02*
Y00305D01*
X00899*
Y00295*
X00889*
X00939Y00344D02*
X00949Y00354D01*
X00969*
X00979Y00344*
Y00305*
X00969Y00295*
X00949*
X00939Y00305*
Y00344*
X00775Y00464D02*
X00814Y00405D01*
Y00464D02*
X00775Y00405D01*
X00834Y00464D02*
Y00405D01*
Y00424*
X00874Y00464*
X00844Y00434*
X00874Y00405*
X00934Y00454D02*
X00924Y00464D01*
X00904*
X00894Y00454*
Y00444*
X00904Y00434*
X00924*
X00934Y00424*
Y00415*
X00924Y00405*
X00904*
X00894Y00415*
X00964Y00405D02*
X00984D01*
X00994Y00415*
Y00434*
X00984Y00444*
X00964*
X00954Y00434*
Y00415*
X00964Y00405*
X01014D02*
X01034D01*
X01024*
Y00444*
X01014*
X01064Y00405D02*
X01084D01*
X01074*
Y00464*
X01064*
X01154Y00454D02*
X01144Y00464D01*
X01124*
X01114Y00454*
Y00444*
X01124Y00434*
X01144*
X01154Y00424*
Y00415*
X01144Y00405*
X01124*
X01114Y00415*
X01204Y00405D02*
X01184D01*
X01174Y00415*
Y00434*
X01184Y00444*
X01204*
X01214Y00434*
Y00424*
X01174*
X01234Y00405D02*
Y00444D01*
X01264*
X01274Y00434*
Y00405*
X01294D02*
X01324D01*
X01334Y00415*
X01324Y00424*
X01304*
X01294Y00434*
X01304Y00444*
X01334*
X01364Y00405D02*
X01384D01*
X01394Y00415*
Y00434*
X01384Y00444*
X01364*
X01354Y00434*
Y00415*
X01364Y00405*
X01414Y00444D02*
Y00405D01*
Y00424*
X01424Y00434*
X01434Y00444*
X01444*
M02*