%FSTAX23Y23*%
%MOIN*%
%SFA1B1*%

%IPPOS*%
%ADD14R,0.037400X0.057090*%
%ADD15R,0.037800X0.058660*%
%ADD16R,0.038980X0.057870*%
%ADD17R,0.043310X0.078740*%
%ADD18R,0.078740X0.043310*%
%ADD19R,0.039370X0.057090*%
%ADD20R,0.039370X0.021650*%
%ADD21R,0.037400X0.023620*%
%ADD22R,0.057090X0.037400*%
%ADD23R,0.045280X0.057090*%
%ADD24R,0.031500X0.011810*%
%ADD25R,0.068900X0.096460*%
%ADD26R,0.057090X0.039370*%
%ADD27R,0.057870X0.040160*%
%ADD28R,0.263780X0.263780*%
%ADD29R,0.062990X0.118110*%
%ADD30R,0.057090X0.045280*%
%ADD31R,0.015750X0.047240*%
%ADD32R,0.035430X0.035430*%
%ADD33R,0.059060X0.035430*%
%ADD34R,0.035430X0.059060*%
%LNxksoilsensor-1*%
%LPD*%
G54D14*
X0008Y00515D03*
X00159D03*
X0008Y00625D03*
X00159D03*
X0069Y0052D03*
X00769D03*
X00692Y00625D03*
X00771D03*
X01111Y0053D03*
X0119D03*
X0111Y0062D03*
X01189D03*
X0161Y00515D03*
X01688D03*
X0161Y00625D03*
X01688D03*
X01902Y00995D03*
X01977D03*
G54D15*
X00526Y01465D03*
X00593D03*
X01791Y01525D03*
X01858D03*
X01801Y01625D03*
X01868D03*
G54D16*
X00525Y0156D03*
X0059D03*
G54D17*
X01965Y0123D03*
X02154D03*
G54D18*
X0206Y01324D03*
Y01135D03*
G54D19*
X01747Y01125D03*
X01822D03*
X00412Y01025D03*
X00337D03*
X0051D03*
X00584D03*
X00192Y01175D03*
X00117D03*
X00537Y02055D03*
X00612D03*
G54D20*
X01752Y01285D03*
Y01234D03*
X01827Y0126D03*
G54D21*
X0196Y01507D03*
Y0147D03*
Y01432D03*
X02069D03*
Y01507D03*
G54D22*
X0033Y01547D03*
Y01622D03*
G54D23*
X00125Y0104D03*
X00195D03*
X00329Y01175D03*
X004D03*
X0052Y0167D03*
X0059D03*
X0052Y01815D03*
X0059D03*
G54D24*
X0031Y01359D03*
Y01339D03*
Y0132D03*
Y013D03*
Y0128D03*
X00429D03*
Y013D03*
Y0132D03*
Y01339D03*
Y01359D03*
G54D25*
X0037Y0132D03*
G54D26*
X00585Y01354D03*
Y0128D03*
G54D27*
X02195Y00658D03*
Y00721D03*
G54D28*
X0228Y00195D03*
G54D29*
X02189Y00456D03*
X0237D03*
G54D30*
X02365Y00649D03*
Y0072D03*
G54D31*
X00288Y02001D03*
X00262D03*
X00237D03*
X00211D03*
X00186D03*
G54D32*
X01225Y0159D03*
Y01535D03*
Y01479D03*
X0117D03*
X01114D03*
Y01535D03*
Y0159D03*
X0117D03*
Y01535D03*
G54D33*
X01573Y01838D03*
Y01788D03*
Y01738D03*
Y01688D03*
Y01638D03*
Y01588D03*
Y01538D03*
Y01488D03*
Y01438D03*
Y01388D03*
Y01338D03*
Y01288D03*
Y01238D03*
Y01188D03*
X00884D03*
Y01238D03*
Y01288D03*
Y01338D03*
Y01388D03*
Y01438D03*
Y01488D03*
Y01538D03*
Y01588D03*
Y01638D03*
Y01688D03*
Y01738D03*
Y01788D03*
Y01838D03*
G54D34*
X01504Y01139D03*
X01454D03*
X01404D03*
X01354D03*
X01304D03*
X01254D03*
X01204D03*
X01154D03*
X01104D03*
X01054D03*
X01004D03*
X00954D03*
M02*